<svg width="30" height="30" viewBox="0 0 30 30" fill="none" xmlns="http://www.w3.org/2000/svg">
<path fill-rule="evenodd" clip-rule="evenodd" d="M6.25 3.75C5.58696 3.75 4.95107 4.01339 4.48223 4.48223C4.01339 4.95107 3.75 5.58696 3.75 6.25V8.75C3.75 9.41304 4.01339 10.0489 4.48223 10.5178C4.95107 10.9866 5.58696 11.25 6.25 11.25H8.75C9.41304 11.25 10.0489 10.9866 10.5178 10.5178C10.9866 10.0489 11.25 9.41304 11.25 8.75V6.25C11.25 5.58696 10.9866 4.95107 10.5178 4.48223C10.0489 4.01339 9.41304 3.75 8.75 3.75H6.25ZM16.25 5C16.25 4.66848 16.1183 4.35054 15.8839 4.11612C15.6495 3.8817 15.3315 3.75 15 3.75C14.6685 3.75 14.3505 3.8817 14.1161 4.11612C13.8817 4.35054 13.75 4.66848 13.75 5V6.25C13.75 6.58152 13.8817 6.89946 14.1161 7.13388C14.3505 7.3683 14.6685 7.5 15 7.5C15.3315 7.5 15.6495 7.3683 15.8839 7.13388C16.1183 6.89946 16.25 6.58152 16.25 6.25V5ZM21.25 3.75C20.587 3.75 19.9511 4.01339 19.4822 4.48223C19.0134 4.95107 18.75 5.58696 18.75 6.25V8.75C18.75 9.41304 19.0134 10.0489 19.4822 10.5178C19.9511 10.9866 20.587 11.25 21.25 11.25H23.75C24.413 11.25 25.0489 10.9866 25.5178 10.5178C25.9866 10.0489 26.25 9.41304 26.25 8.75V6.25C26.25 5.58696 25.9866 4.95107 25.5178 4.48223C25.0489 4.01339 24.413 3.75 23.75 3.75H21.25ZM16.25 11.25C16.25 10.9185 16.1183 10.6005 15.8839 10.3661C15.6495 10.1317 15.3315 10 15 10C14.6685 10 14.3505 10.1317 14.1161 10.3661C13.8817 10.6005 13.75 10.9185 13.75 11.25V13.75C13.75 14.413 14.0134 15.0489 14.4822 15.5178C14.9511 15.9866 15.587 16.25 16.25 16.25H17.5C17.8315 16.25 18.1495 16.1183 18.3839 15.8839C18.6183 15.6495 18.75 15.3315 18.75 15C18.75 14.6685 18.6183 14.3505 18.3839 14.1161C18.1495 13.8817 17.8315 13.75 17.5 13.75H16.25V11.25ZM5 13.75C4.66848 13.75 4.35054 13.8817 4.11612 14.1161C3.8817 14.3505 3.75 14.6685 3.75 15C3.75 15.3315 3.8817 15.6495 4.11612 15.8839C4.35054 16.1183 4.66848 16.25 5 16.25H10C10.3315 16.25 10.6495 16.1183 10.8839 15.8839C11.1183 15.6495 11.25 15.3315 11.25 15C11.25 14.6685 11.1183 14.3505 10.8839 14.1161C10.6495 13.8817 10.3315 13.75 10 13.75H5ZM22.5 13.75C22.1685 13.75 21.8505 13.8817 21.6161 14.1161C21.3817 14.3505 21.25 14.6685 21.25 15C21.25 15.3315 21.3817 15.6495 21.6161 15.8839C21.8505 16.1183 22.1685 16.25 22.5 16.25H25C25.3315 16.25 25.6495 16.1183 25.8839 15.8839C26.1183 15.6495 26.25 15.3315 26.25 15C26.25 14.6685 26.1183 14.3505 25.8839 14.1161C25.6495 13.8817 25.3315 13.75 25 13.75H22.5ZM6.25 18.75C5.58696 18.75 4.95107 19.0134 4.48223 19.4822C4.01339 19.9511 3.75 20.587 3.75 21.25V23.75C3.75 24.413 4.01339 25.0489 4.48223 25.5178C4.95107 25.9866 5.58696 26.25 6.25 26.25H8.75C9.41304 26.25 10.0489 25.9866 10.5178 25.5178C10.9866 25.0489 11.25 24.413 11.25 23.75V21.25C11.25 20.587 10.9866 19.9511 10.5178 19.4822C10.0489 19.0134 9.41304 18.75 8.75 18.75H6.25ZM16.25 18.75C15.587 18.75 14.9511 19.0134 14.4822 19.4822C14.0134 19.9511 13.75 20.587 13.75 21.25V25C13.75 25.3315 13.8817 25.6495 14.1161 25.8839C14.3505 26.1183 14.6685 26.25 15 26.25C15.3315 26.25 15.6495 26.1183 15.8839 25.8839C16.1183 25.6495 16.25 25.3315 16.25 25V21.25H17.5C17.8315 21.25 18.1495 21.1183 18.3839 20.8839C18.6183 20.6495 18.75 20.3315 18.75 20C18.75 19.6685 18.6183 19.3505 18.3839 19.1161C18.1495 18.8817 17.8315 18.75 17.5 18.75H16.25ZM22.5 18.75C22.1685 18.75 21.8505 18.8817 21.6161 19.1161C21.3817 19.3505 21.25 19.6685 21.25 20C21.25 20.3315 21.3817 20.6495 21.6161 20.8839C21.8505 21.1183 22.1685 21.25 22.5 21.25H25C25.3315 21.25 25.6495 21.1183 25.8839 20.8839C26.1183 20.6495 26.25 20.3315 26.25 20C26.25 19.6685 26.1183 19.3505 25.8839 19.1161C25.6495 18.8817 25.3315 18.75 25 18.75H22.5ZM20 23.75C19.6685 23.75 19.3505 23.8817 19.1161 24.1161C18.8817 24.3505 18.75 24.6685 18.75 25C18.75 25.3315 18.8817 25.6495 19.1161 25.8839C19.3505 26.1183 19.6685 26.25 20 26.25H25C25.3315 26.25 25.6495 26.1183 25.8839 25.8839C26.1183 25.6495 26.25 25.3315 26.25 25C26.25 24.6685 26.1183 24.3505 25.8839 24.1161C25.6495 23.8817 25.3315 23.75 25 23.75H20Z" fill="white"/>
</svg>
